<?xml version="1.0" encoding="utf-8"?>
<!-- Generator: Adobe Illustrator 18.0.0, SVG Export Plug-In . SVG Version: 6.00 Build 0)  -->
<!DOCTYPE svg PUBLIC "-//W3C//DTD SVG 1.1//EN" "http://www.w3.org/Graphics/SVG/1.1/DTD/svg11.dtd">
<svg version="1.1" id="Layer_1" xmlns="http://www.w3.org/2000/svg" xmlns:xlink="http://www.w3.org/1999/xlink" x="0px" y="0px"
	 viewBox="26.5 0 34.5 110.8" enable-background="new 26.5 0 34.5 110.8" xml:space="preserve">
<g>
	<path d="M56.2,45.8c0,0-0.1-0.1-0.1-0.1c-0.1-0.3-0.4-0.4-0.8-0.2c-0.5,0.2-0.9,0.4-1.4,0.6l-0.2,0.1c-0.3,0.2-0.7,0.3-1,0.4
		c-0.2,0.1-0.3,0.1-0.5,0.2c-0.2,0.1-0.5,0.2-0.7,0.3c-0.2,0.1-0.4,0.2-0.5,0.3c-0.2,0.1-0.5,0.2-0.7,0.3c-0.3,0.1-0.6,0.2-0.9,0.3
		c-0.2,0-0.3,0.1-0.5,0.1c-0.3,0.1-0.6,0.2-1,0.3c-0.7,0.2-1.3,0.4-2,0.6c-0.6,0.2-1.2,0.3-1.8,0.4c-0.3,0.1-0.5,0.1-0.8,0.2
		c-0.4,0.1-0.7,0.2-1.1,0.3c-0.8,0.2-1.7,0.4-2.6,0.6c-0.4,0.1-0.8,0.1-1.2,0.1c-0.4,0-0.7,0-1.1,0.1c-0.8,0.1-1.6-0.1-2.4-0.3
		c-0.3-0.1-0.4-0.4-0.3-0.7c0.2-0.6,0.5-1.2,1-1.6c0.6-0.5,1.2-1,1.9-1.5c0.7-0.5,1.4-1,2.1-1.5c0.4-0.2,0.7-0.4,1.1-0.7
		c0.3-0.2,0.7-0.4,1-0.6c0.2-0.1,0.3-0.3,0.4-0.5c0.1-0.3,0-0.6-0.1-0.7c0-0.1-0.1-0.1-0.1-0.2l0-0.1c-0.1-0.2-0.2-0.6-0.6-0.6
		c-0.1,0-0.2-0.1-0.3-0.1c-0.1-0.1-0.3-0.1-0.5-0.1c-0.2,0-0.3,0.1-0.4,0.1c0,0-0.1,0-0.1,0.1l-0.1,0c-0.8,0.3-1.5,0.6-2.3,0.9
		c0.4-0.3,0.9-0.6,1.3-0.9c0.3-0.2,0.7-0.4,1-0.6c0.4-0.2,0.8-0.5,1.2-0.7c0.3-0.2,0.6-0.3,1-0.4c0.5-0.2,1-0.3,1.3-0.7l0.8-0.2
		c0.6-0.2,1.2-0.4,1.7-0.5c0.4-0.1,0.7-0.1,1.1-0.1c0,0,0.1,0,0.1,0c0.2,0,0.6-0.1,0.7-0.3c0.3-0.5,0.3-0.9-0.1-1.2c0,0,0-0.1,0-0.1
		c-0.1-0.6-0.8-1-1.4-0.9c-0.9,0.2-1.7,0.5-2.6,0.7l0,0l0-0.1c-0.4-0.7-1.3-4.1-1.3-4.6c0-0.4-0.1-0.7-0.2-1.1
		c-0.1-0.4-0.2-0.7-0.2-1c0-0.5-0.1-1-0.2-1.5c-0.1-0.5-0.2-1-0.2-1.5c0-0.8,0.1-1.7-1-2.3c-0.5-0.3-0.9,0-1,0.5l0,0.1
		c-0.1,0.4-0.1,0.8-0.1,1.2c0,0.5,0.1,1,0.2,1.4c0.1,0.4,0.2,0.8,0.2,1.2c0,0.3,0.1,0.6,0.2,0.9c0.1,0.3,0.2,0.6,0.2,0.9
		c0,0.3,0.3,1.2,0.7,2.7c0.4,1.3,0.9,2.9,0.9,3.3c0,0.3-0.1,0.5-0.5,0.6l-0.3,0.1c-0.7,0.3-1.4,0.6-2,1c-0.3,0.2-0.5,0.3-0.8,0.5
		c-0.8,0.5-1.7,1-2.4,1.6c-0.4,0.4-0.9,0.7-1.3,1.1c-0.3,0.3-0.7,0.6-1,0.9c-0.2,0.2-0.2,0.4-0.3,0.5c-0.2,1.1,0.1,2,0.9,2.6
		c0,0,0.1,0.1,0.1,0.1c0,0,0,0-0.1,0.1L34.1,46c-0.4,0.4-0.8,0.9-1,1.4c-0.5,0.9-0.6,1.9-0.3,2.9c0.1,0.3,0.2,0.6,0.4,0.9l0.2,0.4
		c0.1,0.1,0.1,0.3,0.2,0.4c0.9,0.9,2,1.2,3,1.4l0.1,0c0.1,0,0.1,0,0.2,0c0,0,0.1,0,0.1,0l0.1,0c0.3,0,0.6-0.1,1,0c0.1,0,0.2,0,0.3,0
		c1-0.1,1.8-0.3,2.6-0.4c0.2,0,0.3-0.1,0.5-0.2c0.1,0,0.2-0.1,0.4-0.1c0.3-0.1,0.6-0.1,0.9-0.2c0.3-0.1,0.6-0.1,0.9-0.2
		c0.2-0.1,0.5-0.1,0.7-0.2c0.7-0.2,1.5-0.3,2.2-0.6c0.5-0.2,1-0.3,1.4-0.4c0.8-0.2,1.7-0.4,2.5-0.8c0.5-0.3,1.1-0.6,1.7-0.8
		c0.3-0.1,0.5-0.2,0.8-0.4c0.2-0.1,0.3-0.2,0.5-0.2c0.4-0.2,0.8-0.4,1.2-0.6c0.4-0.2,0.8-0.5,0.9-0.9c0.1-0.3,0.3-0.5,0.5-0.7
		C56.5,46.3,56.3,46,56.2,45.8z"/>
	<path d="M49.5,63.4c-0.1-0.2-0.1-0.5-0.2-0.7c-0.1-0.5-0.3-1-0.4-1.5c-0.1-0.4-0.3-0.7-0.4-1.1c-0.1-0.3-0.3-0.7-0.4-1
		c-0.2-0.5-0.3-1-0.4-1.5c-0.2-0.7-0.3-1.5-0.4-2.2l-0.2-1.1c-0.2-0.7-0.4-1.6-1.4-1.9c-0.5-0.2-0.8,0-0.9,0.4
		c-0.1,0.2-0.1,0.5,0,0.7c0.1,0.5,0.3,1,0.4,1.6c0.1,0.4,0.2,0.8,0.3,1.1c0.1,0.5,0.3,1,0.4,1.5c0.1,0.6,0.3,1.1,0.4,1.7
		c0.1,0.4,0.3,0.8,0.4,1.2c0.1,0.2,0.2,0.4,0.3,0.7c0.2,0.3,0.3,0.7,0.4,1c0.1,0.3,0.1,0.6,0.2,0.9c0,0.2,0.1,0.5,0.1,0.7
		c0.1,0.4,0.1,0.8,0.1,1.3c0,0.2,0,0.4,0.1,0.5c0.1,0.1,0.3,0.3,0.5,0.3l0,0c0.2,0,0.5-0.2,0.6-0.4c0-0.2,0.1-0.4,0.2-0.6
		c0.1-0.4,0.3-0.9,0.2-1.4l0.1,0L49.5,63.4z"/>
</g>
</svg>
