<?xml version="1.0" encoding="utf-8"?>
<!-- Generator: Adobe Illustrator 16.0.0, SVG Export Plug-In . SVG Version: 6.00 Build 0)  -->
<!DOCTYPE svg PUBLIC "-//W3C//DTD SVG 1.1//EN" "http://www.w3.org/Graphics/SVG/1.1/DTD/svg11.dtd">
<svg version="1.1" id="Layer_1" xmlns="http://www.w3.org/2000/svg" xmlns:xlink="http://www.w3.org/1999/xlink" x="0px" y="0px"
	 width="93px" height="113px" viewBox="0 0 93 113" enable-background="new 0 0 93 113" xml:space="preserve">
<g>
	<path fill="#FFFFFF" d="M35.462,46.823c0.055,1.046-0.438,1.757-1.113,2.345c-1.591,1.384-2.638,3.199-3.88,4.855
		c-0.781,1.042-0.629,1.87,0.296,2.728c0.811,0.753,1.709,0.705,2.152-0.306c1.014-2.313,2.688-4.156,4.196-6.105
		c2.101-2.715,4.183-5.498,7.586-6.779c0.141-0.053,0.259-0.181,0.375-0.287c0.41-0.372,0.492-1.038,0.196-1.531
		c-0.796-1.329-1.883-1.68-3.241-0.93c-0.906,0.5-1.732,1.143-2.603,1.709c-1.224,0.795-2.562,1.136-4.075,1.113
		c0-0.373-0.055-0.615,0.009-0.819c0.503-1.598,1.05-3.182,1.541-4.783c0.441-1.439,0.533-1.598,1.957-1.544
		c4.069,0.154,8.145-0.303,12.21,0.142c0.078,0.009,0.158-0.002,0.238-0.009c0.554-0.047,0.98-0.732,0.758-1.256
		c-0.401-0.943-1.003-1.621-2.143-1.613c-1.678,0.013-3.357,0.04-5.034-0.014c-3.023-0.097-6.074,0.423-9.067-0.446
		c-0.786-0.228-1.219,0.153-1.303,0.962c-0.049,0.475-0.006,0.96-0.062,1.435c-0.321,2.77-1.301,5.256-3.17,7.366
		c-0.781,0.882-1.663,1.479-2.909,1.356c-0.302-0.03-0.669-0.047-0.916,0.092c-2.091,1.18-4.479,1.09-6.724,1.597
		c-0.328,0.074-0.707-0.079-1.151-0.14c0.184-1.35,0.975-2.188,1.656-3.033c1.102-1.367,2.277-2.683,3.509-3.933
		c1.175-1.193,2.342-2.458,3.725-3.369c3.198-2.108,6.522-4.025,9.802-6.009c0.271-0.164,0.59-0.245,0.882-0.374
		c2.632-1.154,5.256-2.329,7.9-3.454c0.572-0.243,1.215-0.344,1.835-0.451c0.388-0.067,0.802,0.023,1.19-0.04
		c0.946-0.154,1.447-1.134,1.061-2.009c-0.492-1.118-1.436-1.638-2.691-1.428c-3.862,0.646-7.719,1.318-11.581,1.959
		c-0.945,0.156-1.901,0.278-2.856,0.334c-3.032,0.175-6.066,0.313-9.1,0.462c-1.189,0.059-1.685,0.962-1.019,1.964
		c0.301,0.453,0.749,0.809,1.202,1.284c1.185-0.14,2.369-0.286,3.554-0.417c2.063-0.227,4.126-0.458,6.193-0.646
		c0.329-0.03,0.823-0.168,1.004,0.563c-2.42,1.471-4.877,2.944-7.311,4.456c-0.945,0.587-1.865,1.224-2.746,1.903
		c-2.037,1.572-3.59,3.632-5.39,5.443c-1.933,1.944-3.491,4.146-4.677,6.614c-0.034,0.072-0.073,0.143-0.112,0.212
		c-0.373,0.67-0.915,1.046-1.696,1.178c-3.298,0.556-6.563,1.359-9.958,1.052c-1.278-0.116-1.782,0.688-1.209,1.807
		c0.392,0.764,0.965,1.271,1.877,1.253c0.479-0.011,0.96-0.019,1.434-0.081c1.898-0.248,3.791-0.542,5.692-0.76
		c0.416-0.047,0.859,0.153,1.345,0.25c-0.062,1.212-0.57,2.141-0.833,3.131c-0.599,2.258-0.307,4.253,1.605,5.854
		c2.646,2.217,5.719,3.215,9.101,3.006c1.897-0.117,3.768-0.674,5.646-1.057c1.487-0.303,2.967-0.645,4.451-0.961
		c1.09-0.233,2.182-0.455,3.274-0.679c0.699-0.143,1.396-0.308,2.102-0.399c0.198-0.025,0.502,0.116,0.617,0.28
		c0.108,0.153,0.091,0.459,0.019,0.657c-0.078,0.212-0.261,0.403-0.438,0.558c-1.926,1.676-3.814,3.398-5.803,4.997
		c-3.237,2.602-6.559,5.098-9.807,7.687c-0.932,0.742-1.781,1.605-2.579,2.494c-0.75,0.835-0.667,1.679,0.073,2.32
		c0.917,0.794,1.621,0.741,2.465-0.172c0.758-0.82,1.446-1.728,2.301-2.432c3.203-2.64,6.492-5.176,9.69-7.822
		c2.329-1.928,4.921-3.57,6.751-6.062c0.278-0.38,0.692-0.661,1.052-0.979c1.376-1.213,2.772-2.404,4.129-3.638
		c0.926-0.843,0.854-1.612-0.126-2.368c-0.739-0.569-1.515-0.871-2.451-0.54c-0.979,0.346-2.02,0.562-2.939,1.021
		c-2.176,1.089-4.479,1.678-6.856,2.074c-2.679,0.446-5.348,0.949-8.024,1.413c-1.573,0.273-3.145,0.559-4.728,0.765
		c-1.795,0.233-3.512-0.202-5.131-0.922c-1.628-0.724-2.135-1.755-1.684-3.49c0.34-1.308,0.919-2.552,1.336-3.843
		c0.466-1.442,1.363-2.198,2.916-2.415c2.609-0.365,5.192-0.916,7.789-1.374c0.469-0.083,0.979-0.218,1.42-0.115
		c1.25,0.287,2.35-0.129,3.503-0.483C33.055,46.854,34.206,46.479,35.462,46.823z M68.732,47.885
		c-0.234-0.076-0.408-0.091-0.531-0.179c-1.4-1.001-2.701-0.696-3.955,0.282c-0.566,0.442-1.129,0.889-1.686,1.343
		c-1.361,1.11-2.712,2.234-4.08,3.336c-0.371,0.298-0.781,0.569-1.453,0.223c-0.072-0.341-0.195-0.782-0.256-1.231
		c-0.195-1.414-0.699-1.917-2.121-2.068c-0.729-0.078-1.285,0.375-1.24,1.099c0.084,1.377,0.421,2.752,1.271,3.807
		c1.062,1.315,2.553,2.18,4.436,1.035c1.081-0.657,2.049-1.509,3.041-2.306c1.055-0.848,2.057-1.765,3.131-2.587
		c0.338-0.258,0.834-0.307,1.418-0.505c0,0.739-0.051,1.292,0.012,1.833c0.097,0.854,0.582,1.513,1.344,1.864
		c1.118,0.517,2.303,0.675,3.488,0.202c0.441-0.177,0.834-0.477,1.273-0.663c0.703-0.298,1.391-0.323,2.008,0.245
		c0.723,0.667,1.611,1.004,2.551,1.236c0.814,0.202,0.811,0.216,1.27-0.949c-1.578-0.465-1.498-2.088-2.178-3.269
		c-0.498-0.222-1.072-0.363-1.492-0.698c-0.41-0.328-0.641-0.873-0.995-1.284c-0.2-0.234-0.477-0.413-0.741-0.581
		C71.757,47.126,70.215,47.202,68.732,47.885z M87.706,52.645c0.278,0.271,0.546,0.454,0.712,0.705
		c0.309,0.466,0.546,0.977,0.834,1.455c0.267,0.441,0.656,0.718,1.191,0.608c0.553-0.113,0.771-0.539,0.775-1.059
		c0.004-0.639,0.002-1.281-0.071-1.914c-0.175-1.523-0.885-2.37-2.37-2.589c-0.762-0.112-1.582,0.023-2.352,0.174
		c-0.602,0.117-1.165,0.429-1.908,0.717c-0.117-0.495-0.141-0.889-0.305-1.211c-0.207-0.406-0.461-0.843-0.814-1.107
		c-0.801-0.598-1.568-0.416-1.979,0.451c-0.545,1.155-1.062,2.328-1.509,3.524c-0.464,1.244,0.028,2.208,1.249,2.668
		c0.707,0.266,1.422,0.286,2.096-0.06c1.064-0.545,2.104-1.135,3.158-1.7C86.823,53.088,87.24,52.883,87.706,52.645z"/>
	<path fill-rule="evenodd" clip-rule="evenodd" d="M35.462,46.823c-1.256-0.344-2.407,0.031-3.521,0.374
		c-1.153,0.354-2.253,0.771-3.503,0.483c-0.442-0.103-0.952,0.032-1.42,0.115c-2.597,0.458-5.18,1.009-7.789,1.374
		c-1.553,0.217-2.45,0.973-2.916,2.415c-0.417,1.291-0.997,2.535-1.336,3.843c-0.451,1.735,0.056,2.767,1.684,3.49
		c1.62,0.72,3.336,1.155,5.131,0.922c1.583-0.206,3.155-0.491,4.728-0.765c2.676-0.464,5.346-0.967,8.024-1.413
		c2.378-0.396,4.681-0.985,6.856-2.074c0.919-0.46,1.96-0.676,2.939-1.021c0.937-0.331,1.712-0.029,2.451,0.54
		c0.979,0.756,1.052,1.525,0.126,2.368c-1.357,1.233-2.753,2.425-4.129,3.638c-0.36,0.317-0.773,0.599-1.052,0.979
		c-1.83,2.492-4.422,4.135-6.751,6.062c-3.198,2.646-6.487,5.183-9.69,7.822c-0.855,0.704-1.543,1.611-2.301,2.432
		c-0.844,0.913-1.548,0.966-2.465,0.172c-0.741-0.642-0.823-1.485-0.073-2.32c0.797-0.889,1.647-1.752,2.579-2.494
		c3.248-2.589,6.569-5.085,9.807-7.687c1.989-1.599,3.877-3.321,5.803-4.997c0.177-0.154,0.361-0.346,0.438-0.558
		c0.073-0.198,0.089-0.504-0.019-0.657c-0.115-0.164-0.418-0.306-0.617-0.28c-0.706,0.092-1.403,0.257-2.102,0.399
		c-1.092,0.224-2.185,0.445-3.274,0.679c-1.484,0.316-2.964,0.658-4.451,0.961c-1.878,0.383-3.75,0.939-5.646,1.057
		c-3.382,0.209-6.455-0.789-9.101-3.006c-1.912-1.602-2.204-3.597-1.605-5.854c0.263-0.99,0.771-1.919,0.833-3.131
		c-0.486-0.097-0.93-0.297-1.345-0.25c-1.901,0.218-3.794,0.512-5.692,0.76c-0.474,0.062-0.956,0.07-1.434,0.081
		c-0.912,0.019-1.485-0.489-1.877-1.253c-0.573-1.119-0.069-1.923,1.209-1.807c3.394,0.308,6.66-0.496,9.958-1.052
		c0.782-0.132,1.323-0.508,1.696-1.178c0.039-0.069,0.078-0.14,0.112-0.212c1.187-2.469,2.744-4.67,4.677-6.614
		c1.8-1.812,3.353-3.871,5.39-5.443c0.881-0.68,1.801-1.316,2.746-1.903c2.434-1.512,4.891-2.985,7.311-4.456
		c-0.181-0.731-0.675-0.594-1.004-0.563c-2.067,0.188-4.129,0.42-6.193,0.646c-1.185,0.131-2.369,0.277-3.554,0.417
		c-0.453-0.476-0.901-0.831-1.202-1.284c-0.666-1.002-0.17-1.905,1.019-1.964c3.034-0.148,6.067-0.287,9.1-0.462
		c0.956-0.056,1.911-0.178,2.856-0.334c3.862-0.641,7.719-1.313,11.581-1.959c1.256-0.21,2.199,0.31,2.691,1.428
		c0.387,0.875-0.114,1.854-1.061,2.009c-0.389,0.063-0.803-0.027-1.19,0.04c-0.62,0.107-1.263,0.208-1.835,0.451
		c-2.645,1.125-5.269,2.3-7.9,3.454c-0.292,0.129-0.612,0.21-0.882,0.374c-3.279,1.983-6.604,3.9-9.802,6.009
		c-1.383,0.911-2.55,2.176-3.725,3.369c-1.232,1.25-2.407,2.565-3.509,3.933c-0.681,0.845-1.472,1.684-1.656,3.033
		c0.444,0.061,0.823,0.214,1.151,0.14c2.246-0.507,4.633-0.417,6.724-1.597c0.246-0.139,0.613-0.122,0.916-0.092
		c1.246,0.122,2.127-0.475,2.909-1.356c1.869-2.11,2.849-4.597,3.17-7.366c0.055-0.475,0.013-0.96,0.062-1.435
		c0.083-0.809,0.517-1.189,1.303-0.962c2.993,0.869,6.043,0.35,9.067,0.446c1.677,0.054,3.356,0.026,5.034,0.014
		c1.14-0.008,1.741,0.67,2.143,1.613c0.223,0.523-0.204,1.209-0.758,1.256c-0.08,0.007-0.16,0.018-0.238,0.009
		c-4.065-0.444-8.141,0.013-12.21-0.142c-1.424-0.054-1.516,0.104-1.957,1.544c-0.491,1.602-1.038,3.186-1.541,4.783
		c-0.064,0.204-0.009,0.446-0.009,0.819c1.513,0.022,2.851-0.318,4.075-1.113c0.871-0.566,1.697-1.209,2.603-1.709
		c1.358-0.75,2.445-0.399,3.241,0.93c0.296,0.493,0.213,1.159-0.196,1.531c-0.117,0.106-0.234,0.234-0.375,0.287
		c-3.403,1.281-5.485,4.064-7.586,6.779c-1.509,1.949-3.183,3.792-4.196,6.105c-0.442,1.011-1.341,1.059-2.152,0.306
		c-0.925-0.857-1.078-1.686-0.296-2.728c1.243-1.656,2.29-3.472,3.88-4.855C35.023,48.58,35.517,47.869,35.462,46.823z"/>
	<path fill-rule="evenodd" clip-rule="evenodd" d="M68.732,47.885c1.482-0.684,3.024-0.759,4.514,0.185
		c0.265,0.168,0.541,0.347,0.741,0.581c0.354,0.411,0.585,0.956,0.995,1.284c0.42,0.335,0.994,0.477,1.492,0.698
		c0.68,1.181,0.6,2.804,2.178,3.269c-0.459,1.165-0.455,1.151-1.27,0.949c-0.939-0.232-1.828-0.569-2.551-1.236
		c-0.617-0.568-1.305-0.543-2.008-0.245c-0.439,0.187-0.832,0.486-1.273,0.663c-1.186,0.473-2.37,0.314-3.488-0.202
		c-0.762-0.352-1.247-1.011-1.344-1.864c-0.062-0.541-0.012-1.094-0.012-1.833c-0.584,0.198-1.08,0.247-1.418,0.505
		c-1.074,0.822-2.076,1.739-3.131,2.587c-0.992,0.797-1.96,1.648-3.041,2.306c-1.883,1.145-3.373,0.28-4.436-1.035
		c-0.851-1.055-1.188-2.43-1.271-3.807c-0.045-0.724,0.511-1.177,1.24-1.099c1.422,0.151,1.926,0.654,2.121,2.068
		c0.061,0.449,0.184,0.891,0.256,1.231c0.672,0.347,1.082,0.075,1.453-0.223c1.368-1.102,2.719-2.226,4.08-3.336
		c0.557-0.454,1.119-0.9,1.686-1.343c1.254-0.979,2.555-1.283,3.955-0.282C68.324,47.794,68.498,47.809,68.732,47.885z
		 M70.35,51.313c1.348,0.199,1.348,0.199,2.662-1.074C71.038,50.376,71.038,50.376,70.35,51.313z"/>
	<path fill-rule="evenodd" clip-rule="evenodd" d="M87.706,52.645c-0.466,0.238-0.883,0.443-1.292,0.663
		c-1.054,0.565-2.094,1.155-3.158,1.7c-0.674,0.346-1.389,0.325-2.096,0.06c-1.221-0.46-1.713-1.424-1.249-2.668
		c0.446-1.196,0.964-2.369,1.509-3.524c0.41-0.867,1.178-1.049,1.979-0.451c0.354,0.265,0.607,0.701,0.814,1.107
		c0.164,0.322,0.188,0.716,0.305,1.211c0.743-0.288,1.307-0.6,1.908-0.717c0.77-0.15,1.59-0.286,2.352-0.174
		c1.485,0.219,2.195,1.065,2.37,2.589c0.073,0.633,0.075,1.275,0.071,1.914c-0.004,0.52-0.223,0.945-0.775,1.059
		c-0.535,0.109-0.925-0.167-1.191-0.608c-0.288-0.479-0.525-0.989-0.834-1.455C88.252,53.099,87.984,52.916,87.706,52.645z"/>
	<path fill-rule="evenodd" clip-rule="evenodd" fill="#FFFFFF" d="M70.35,51.313c0.688-0.937,0.688-0.937,2.662-1.074
		C71.697,51.512,71.697,51.512,70.35,51.313z"/>
</g>
<rect id="_x3C_Slice_x3E__4_" fill-rule="evenodd" clip-rule="evenodd" fill="none" width="93" height="113"/>
</svg>
