<?xml version="1.0" encoding="UTF-8"?>
<!-- Generator: Adobe Illustrator 18.0.0, SVG Export Plug-In . SVG Version: 6.00 Build 0)  -->
<!DOCTYPE svg PUBLIC "-//W3C//DTD SVG 1.1//EN" "http://www.w3.org/Graphics/SVG/1.1/DTD/svg11.dtd">
<svg version="1.1" id="Layer_1" xmlns="http://www.w3.org/2000/svg" xmlns:xlink="http://www.w3.org/1999/xlink" x="0px" y="0px" viewBox="0 0 600 400" enable-background="new 0 0 600 400" xml:space="preserve">
<g>
	<line fill="none" stroke="#BBEAC7" stroke-miterlimit="10" x1="396" y1="174.7" x2="417.4" y2="174.7"/>
	<line fill="none" stroke="#BBEAC7" stroke-miterlimit="10" x1="396" y1="178.1" x2="417.4" y2="178.1"/>
	<line fill="none" stroke="#BBEAC7" stroke-miterlimit="10" x1="396" y1="181.6" x2="417.4" y2="181.6"/>
	<line fill="none" stroke="#BBEAC7" stroke-miterlimit="10" x1="396" y1="185" x2="417.4" y2="185"/>
	<line fill="none" stroke="#BBEAC7" stroke-miterlimit="10" x1="396" y1="188.4" x2="417.4" y2="188.4"/>
	<line fill="none" stroke="#BBEAC7" stroke-miterlimit="10" x1="396" y1="191.9" x2="417.4" y2="191.9"/>
	<line fill="none" stroke="#BBEAC7" stroke-miterlimit="10" x1="396" y1="195.3" x2="417.4" y2="195.3"/>
</g>
<circle fill="#419089" cx="365.4" cy="111.1" r="5.6"/>
<rect x="258.9" y="56.9" fill="#419089" width="10.3" height="10.3"/>
<rect x="524.6" y="110" fill="#EF6D44" width="11.1" height="11.1"/>
<rect x="567.4" y="24.3" fill="#419089" width="11.1" height="11.1"/>
<path fill="#D38D29" d="M53.1,88.5V78.3H42.9C42.9,83.4,47.1,88.5,53.1,88.5z"/>
<path fill="#BBEAC7" d="M181.7,185.8v9.9H192C192,189.7,187.7,185.8,181.7,185.8z"/>
</svg>