<?xml version="1.0" encoding="utf-8"?>
<!-- Generator: Adobe Illustrator 16.0.0, SVG Export Plug-In . SVG Version: 6.00 Build 0)  -->
<!DOCTYPE svg PUBLIC "-//W3C//DTD SVG 1.1//EN" "http://www.w3.org/Graphics/SVG/1.1/DTD/svg11.dtd">
<svg version="1.1" id="Layer_1" xmlns="http://www.w3.org/2000/svg" xmlns:xlink="http://www.w3.org/1999/xlink" x="0px" y="0px"
	 width="127px" height="113px" viewBox="0 0 127 113" enable-background="new 0 0 127 113" xml:space="preserve">
<g id="zhJ8uO_1_">
	<g>
		<path fill-rule="evenodd" clip-rule="evenodd" d="M55.856,55.839c-0.774,0.146-1.548,0.295-2.324,0.436
			c-3.131,0.57-6.26,1.15-9.395,1.699c-1.829,0.319-3.672,0.557-5.5,0.881c-1.968,0.35-3.929,0.744-5.888,1.144
			c-3.328,0.678-6.657,1.353-9.977,2.071c-1.426,0.31-2.826,0.739-4.242,1.092c-1.625,0.405-3.271,0.734-4.882,1.191
			c-2.019,0.572-4.005,1.258-6.017,1.858c-0.803,0.239-1.635,0.381-2.454,0.569c-0.461,0.107-0.916,0.256-1.382,0.315
			c-0.271,0.034-0.579-0.022-0.836-0.124c-0.698-0.273-0.842-0.725-0.439-1.351c0.284-0.44,0.624-0.741,1.221-0.847
			c1.159-0.205,2.287-0.578,3.431-0.871c0.85-0.217,1.714-0.381,2.553-0.633c1.471-0.443,2.922-0.949,4.39-1.404
			c0.956-0.295,1.92-0.574,2.892-0.811c3.225-0.785,6.442-1.609,9.687-2.303c3.598-0.768,7.219-1.426,10.836-2.1
			c3.425-0.638,6.856-1.241,10.288-1.839c0.524-0.091,0.668-0.242,0.481-0.79c-0.325-0.953-0.229-1.963-0.292-2.955
			c-0.116-1.806,0.44-3.635-0.242-5.427c-0.259-0.682,0.293-1.309,1.018-1.312c0.356-0.001,0.716,0.05,1.068,0.116
			c0.446,0.084,0.715,0.376,0.724,0.833c0.029,1.557,0.036,3.115,0.053,4.672c0.008,0.66,0.006,1.321,0.041,1.98
			c0.008,0.157,0.146,0.308,0.225,0.462c0.15-0.079,0.353-0.119,0.441-0.242c0.64-0.889,1.242-1.805,1.884-2.691
			c1.029-1.42,2.054-2.844,3.132-4.227c0.435-0.558,1.933-0.639,2.364-0.111c0.235,0.288,0.285,0.825,0.238,1.229
			c-0.101,0.863-0.332,1.709-0.483,2.567c-0.047,0.268-0.007,0.549-0.007,0.936c0.28-0.132,0.523-0.186,0.683-0.33
			c1.122-1.024,2.289-2.009,3.31-3.126c0.565-0.619,0.908-1.454,1.295-2.219c1.047-2.065,2.05-4.154,3.114-6.21
			c0.142-0.273,0.518-0.53,0.825-0.591c1.132-0.227,2.469,0.312,2.231,2.004c-0.129,0.917,0.011,1.877,0.068,2.815
			c0.078,1.275,0.163,2.551,0.301,3.82c0.124,1.131,0.322,2.253,0.491,3.378c0.061,0.404,0.278,0.551,0.677,0.408
			c1.107-0.396,2.214-0.796,3.327-1.18c1.134-0.391,2.271-0.773,3.413-1.144c1.881-0.611,3.757-1.244,5.653-1.803
			c1.994-0.588,4.011-1.098,6.017-1.646c1.365-0.373,2.728-0.758,4.095-1.126c0.56-0.151,1.124-0.286,1.691-0.403
			c1.288-0.265,2.582-0.502,3.868-0.772c1.559-0.329,3.104-0.726,4.671-1.007c1.189-0.214,2.402-0.296,3.605-0.435
			c0.89-0.103,1.779-0.211,2.671-0.301c2.773-0.28,5.551-0.281,8.332-0.099c0.775,0.051,1.558-0.01,2.333,0.041
			c0.952,0.062,1.898,0.198,2.85,0.281c0.617,0.054,1.214,0.132,1.669,0.617c0.053,0.057,0.176,0.075,0.193,0.134
			c0.175,0.566,0.391,1.129,0.479,1.71c0.068,0.441-0.321,0.652-0.692,0.792c-0.513,0.193-1.732-0.277-1.982-0.767
			c-0.266-0.52-0.739-0.661-1.258-0.671c-2.102-0.041-4.202-0.072-6.304-0.095c-1.54-0.017-3.081-0.032-4.621-0.014
			c-0.759,0.009-1.521,0.062-2.274,0.157c-1.641,0.207-3.284,0.402-4.911,0.695c-2.085,0.375-4.156,0.832-6.23,1.272
			c-1.266,0.269-2.531,0.542-3.784,0.867c-1.316,0.342-2.618,0.743-3.923,1.128c-0.161,0.048-0.305,0.156-0.431,0.373
			c0.197,0,0.405,0.041,0.591-0.006c2.289-0.574,4.573-1.168,6.862-1.741c0.814-0.205,1.634-0.469,2.461-0.513
			c0.478-0.025,1.023,0.261,1.45,0.542c0.369,0.243,0.248,0.905-0.167,1.112c-0.403,0.201-0.841,0.341-1.275,0.467
			c-1.227,0.356-2.454,0.707-3.689,1.029c-1.509,0.393-3.025,0.755-4.539,1.128c-1.433,0.354-2.862,0.722-4.301,1.051
			c-1.244,0.283-2.502,0.505-3.747,0.784c-1.32,0.296-2.625,0.659-3.948,0.936c-1.701,0.354-3.417,0.634-5.12,0.979
			c-0.957,0.193-1.908,0.433-2.844,0.709c-0.171,0.051-0.373,0.383-0.37,0.582c0.019,1.26,0.109,2.517,0.141,3.775
			c0.028,1.139,0.063,2.281,0.001,3.417c-0.095,1.733-0.157,3.481-0.443,5.188c-0.303,1.806-0.771,3.597-1.32,5.347
			c-0.501,1.598-1.096,3.186-1.849,4.678c-1.073,2.128-2.542,4.006-4.07,5.842c-1.506,1.81-3.153,3.467-4.962,4.951
			c-1.774,1.455-3.638,2.803-5.482,4.17c-2.463,1.827-5.236,3.072-8.083,4.148c-1.263,0.477-2.555,0.91-3.869,1.213
			c-2.102,0.484-4.219,0.701-6.411,0.539c-1.354-0.1-2.58-0.463-3.812-0.883c-1.692-0.576-2.822-1.82-3.69-3.348
			c-0.678-1.194-1.212-2.444-1.406-3.799c-0.134-0.937-0.117-1.896-0.131-2.848c-0.008-0.538-0.003-1.088,0.099-1.613
			c0.248-1.27,0.424-2.576,0.868-3.779c1.05-2.846,2.659-5.379,4.599-7.717c1.613-1.943,3.426-3.683,5.31-5.344
			c1.3-1.146,2.727-2.151,4.104-3.21c2.517-1.935,5.3-3.438,8.095-4.911c1.61-0.848,3.293-1.555,4.941-2.33
			c0.67-0.315,1.334-0.645,2-0.967C55.891,55.937,55.874,55.888,55.856,55.839z M68.947,56.646
			c-0.036-0.006-0.071-0.011-0.106-0.016c-0.1-0.772-0.197-1.545-0.299-2.316c-0.101-0.773-0.174-0.847-0.9-0.567
			c-1.602,0.616-3.199,1.249-4.778,1.92c-2.467,1.048-4.942,2.082-7.37,3.218c-2.658,1.243-5.291,2.545-7.886,3.913
			c-2.638,1.39-5.084,3.104-7.412,4.954c-1.731,1.377-3.367,2.895-4.919,4.473c-2.035,2.07-3.914,4.295-5.107,6.985
			c-0.58,1.308-1.175,2.64-1.499,4.022c-0.558,2.379-0.347,4.77,0.415,7.105c0.54,1.656,1.591,2.828,3.202,3.506
			c1.067,0.449,2.139,0.83,3.326,0.809c0.951-0.017,1.936,0.203,2.848,0.022c1.914-0.379,3.812-0.88,5.674-1.464
			c2.101-0.657,4.075-1.64,5.941-2.809c1.37-0.859,2.738-1.732,4.023-2.71c1.572-1.196,3.073-2.487,4.572-3.774
			c0.803-0.689,1.633-1.383,2.282-2.207c1.321-1.676,2.612-3.389,3.754-5.189c0.871-1.375,1.63-2.856,2.195-4.38
			c0.914-2.46,1.479-5.038,1.697-7.653C68.817,61.882,68.839,59.261,68.947,56.646z M55.423,50.744
			c-0.164,0.191-0.286,0.312-0.382,0.452c-0.418,0.606-0.836,1.212-1.238,1.829c-0.108,0.168-0.156,0.373-0.232,0.561
			c0.209,0.029,0.429,0.113,0.626,0.078c2.004-0.361,4.006-0.732,6.006-1.117c2.433-0.468,4.861-0.957,7.293-1.422
			c0.482-0.092,0.707-0.348,0.669-0.823c-0.033-0.416-0.098-0.829-0.141-1.244c-0.155-1.49-0.29-2.982-0.467-4.47
			c-0.083-0.696-0.249-1.382-0.377-2.073c-0.365,0.437-0.612,0.88-0.84,1.333c-0.173,0.344-0.326,0.699-0.481,1.052
			c-0.432,0.978-0.693,2.088-1.331,2.903c-0.839,1.07-1.905,2.004-3.002,2.823c-1.106,0.827-2.037,1.992-3.742,1.823
			c-1.28-0.127-1.688-0.195-2.157-1.406C55.601,50.972,55.542,50.914,55.423,50.744z"/>
		<path fill-rule="evenodd" clip-rule="evenodd" d="M22.045,25.903c1.994-0.29,3.988-0.583,5.982-0.868
			c1.834-0.262,3.672-0.501,5.505-0.773c1.616-0.24,3.235-0.475,4.84-0.781c1.449-0.277,2.873-0.686,4.321-0.97
			c2.57-0.504,5.151-0.955,7.727-1.434c1-0.186,1.997-0.391,2.997-0.577c2.14-0.397,4.277-0.81,6.423-1.168
			c0.789-0.132,1.582,0.013,2.327,0.332c0.452,0.193,0.436,1.11-0.063,1.438c-0.442,0.291-0.921,0.545-1.417,0.729
			c-0.221,0.083-0.573,0.037-0.774-0.092c-0.456-0.294-0.91-0.251-1.386-0.159c-1.688,0.327-3.379,0.64-5.062,0.991
			c-2.249,0.47-4.49,0.977-6.737,1.454c-1.701,0.36-3.406,0.698-5.109,1.045c-0.04,0.008-0.081,0.007-0.119,0.017
			c-1.197,0.311-1.459,0.193-0.956,1.515c0.354,0.927,0.474,1.943,0.698,2.92c0.51,2.221,1.027,4.44,1.526,6.664
			s1.035,4.44,1.448,6.68c0.242,1.309,0.271,2.656,0.403,3.985c0.043,0.43,0.123,0.856,0.158,1.286
			c0.083,1.02-0.452,1.875-0.897,2.695c-0.325,0.6-0.977,1.037-1.539,1.477c-0.125,0.098-0.526-0.039-0.721-0.18
			c-0.313-0.224-0.265-0.55-0.151-0.918c0.292-0.943,0.712-1.905,0.723-2.863c0.016-1.427-0.18-2.875-0.458-4.281
			c-0.736-3.731-1.537-7.45-2.37-11.161c-0.372-1.655-0.874-3.281-1.336-4.915c-0.161-0.568-0.403-1.112-0.57-1.678
			c-0.112-0.379-0.346-0.368-0.651-0.318c-1.224,0.201-2.447,0.416-3.676,0.576c-1.127,0.146-2.267,0.202-3.394,0.348
			s-2.245,0.373-3.37,0.534c-1.885,0.27-3.776,0.433-5.681,0.237c-0.667-0.068-1.028-0.361-1.04-0.852
			c-0.013-0.555,0.285-0.849,1.007-0.944c0.455-0.061,0.915-0.08,1.373-0.118C22.034,25.819,22.039,25.861,22.045,25.903z"/>
	</g>
</g>
<rect id="_x3C_Slice_x3E__2_" fill-rule="evenodd" clip-rule="evenodd" fill="none" width="127" height="113"/>
</svg>
